# xmcd
#
# Track frame offsets:
#	150
#	14015
#	26798
#	38483
#	49618
#	62675
#	74643
#	87193
#	99300
#	111798
#	123665
#	136018
#	148058
#	160958
#
# Disc length: 2297 seconds
#
# Revision: 1
# Processed by: cddbd v1.4b42PL0 Copyright (c) Steve Scherf et al.
# Submitted via: audiograbber 1.80
#
DISCID=c108f70e
DTITLE=Bob Wills - Bob Wills Special
DYEAR=1900
DGENRE=
TTITLE0=Get With It
TTITLE1=Oklahoma Rag
TTITLE2=Steel Guitar Rag
TTITLE3=Tulsa Stomp
TTITLE4=There's No Disappointment In Heaven
TTITLE5=Steel Guitar Stomp
TTITLE6=Lone Star Rag
TTITLE7=Time Changes Everything
TTITLE8=Bob Wills Special
TTITLE9=La Paloma
TTITLE10=Just A Plain Old Country Boy
TTITLE11=The Devil Ain't Lazy
TTITLE12=Texarkana Baby
TTITLE13=Can't Get Enough Of Texas
EXTD=
EXTT0=
EXTT1=
EXTT2=
EXTT3=
EXTT4=
EXTT5=
EXTT6=
EXTT7=
EXTT8=
EXTT9=
EXTT10=
EXTT11=
EXTT12=
EXTT13=
PLAYORDER=
